<svg width="135" height="21" viewBox="0 0 135 21" fill="none" xmlns="http://www.w3.org/2000/svg">
<path d="M89.8369 13.6615C90.0056 13.6615 90.1426 13.7984 90.1426 13.9672V16.0833C90.1446 16.252 90.0076 16.389 89.8389 16.389H73.6761C71.7287 16.2858 70.494 14.9935 70.2875 13.2982C70.1763 12.397 70.2121 10.5488 70.2141 9.53244C70.2141 9.30415 70.4086 9.12549 70.6349 9.12549H89.8309C89.9997 9.12549 90.1366 9.26246 90.1366 9.4312V11.5473C90.1366 11.7161 89.9997 11.853 89.8309 11.853H73.1163C73.1143 12.0694 73.1163 12.5697 73.1103 13.0004C73.1064 13.3637 73.416 13.6515 73.7813 13.6515L89.8369 13.6615Z" fill="#252E3A"/>
<path d="M70.368 7.11674H89.8399C90.0146 7.11674 90.1575 6.97579 90.1575 6.79912V4.70482C90.1575 4.53013 90.0166 4.38721 89.8399 4.38721H73.9173C73.7228 4.38721 73.5322 4.45272 73.3794 4.57381L70.2647 6.81897C70.1417 6.91624 70.2091 7.11475 70.366 7.11475L70.368 7.11674Z" fill="#252E3A"/>
<path d="M105.014 10.3802L112.293 4.68689C112.43 4.57969 112.355 4.36133 112.18 4.36133L108.629 4.36927C108.216 4.36927 107.815 4.50823 107.489 4.76431L103.319 8.02584C102.937 8.32361 102.405 8.32361 102.024 8.02584L97.8535 4.76431C97.5279 4.51021 97.1269 4.37125 96.714 4.36927L93.1627 4.36133C92.99 4.36133 92.9145 4.57969 93.0495 4.68689L100.329 10.3802L93.0317 16.0636C92.8947 16.1708 92.9701 16.3891 93.1428 16.3891H96.6644C97.0773 16.3891 97.4803 16.2521 97.8059 15.9981L102.024 12.7147C102.403 12.4189 102.935 12.4189 103.315 12.7147L107.533 15.9981C107.858 16.2521 108.261 16.3891 108.674 16.3891H112.196C112.369 16.3891 112.444 16.1708 112.307 16.0636L105.01 10.3802H105.014Z" fill="#252E3A"/>
<path d="M127.236 10.3802L134.516 4.68689C134.653 4.57969 134.577 4.36133 134.403 4.36133L130.851 4.36927C130.438 4.36927 130.037 4.50823 129.712 4.76431L125.541 8.02584C125.16 8.32361 124.628 8.32361 124.247 8.02584L120.076 4.76431C119.751 4.51021 119.35 4.37125 118.937 4.36927L115.385 4.36133C115.213 4.36133 115.137 4.57969 115.272 4.68689L122.552 10.3802L115.254 16.0636C115.117 16.1708 115.193 16.3891 115.365 16.3891H118.887C119.3 16.3891 119.703 16.2521 120.029 15.9981L124.247 12.7147C124.626 12.4189 125.158 12.4189 125.537 12.7147L129.756 15.9981C130.081 16.2521 130.484 16.3891 130.897 16.3891H134.419C134.591 16.3891 134.667 16.1708 134.53 16.0636L127.232 10.3802H127.236Z" fill="#252E3A"/>
<path d="M49.8577 7.32327C49.8577 8.22649 49.8577 14.6126 49.8577 16.0458C49.8577 16.2265 49.7128 16.3714 49.5321 16.3714H47.2493C47.0726 16.3714 46.9316 16.2285 46.9316 16.0538V6.74758C46.9316 6.57289 47.019 6.41408 47.15 6.29895C47.6681 5.84634 49.2324 4.6652 49.2324 4.6652C49.4388 4.50441 49.6532 4.42103 49.8597 4.42103L63.0726 4.38332C65.1351 4.37736 66.8106 6.04883 66.8106 8.11136V16.0617C66.8106 16.2324 66.6716 16.3714 66.5009 16.3714H64.1823C64.0155 16.3714 63.8805 16.2364 63.8805 16.0697L63.8845 7.93667C63.8845 7.5853 63.5986 7.30143 63.2493 7.30342L49.8577 7.32724V7.32327Z" fill="#252E3A"/>
<path d="M29.1534 11.6326C29.1554 11.5373 29.201 11.448 29.2785 11.3904L43.1167 0.803784C43.2973 0.664826 43.2 0.375 42.9717 0.375H35.2794C34.6502 0.375 34.0388 0.583436 33.5405 0.968548L23.4502 8.75614C23.2318 8.91892 22.9678 9.00825 22.6958 9.00825H21.7708H20.8457C20.5737 9.00825 20.3077 8.92091 20.0914 8.75614L10.001 0.968548C9.50277 0.583436 8.89135 0.375 8.26207 0.375H0.569768C0.34148 0.375 0.242224 0.664826 0.424854 0.803784L14.2631 11.3904C14.3405 11.448 14.3861 11.5353 14.3881 11.6326C14.3901 11.7279 14.3504 11.8192 14.277 11.8807L4.83776 19.9542C4.66902 20.0991 4.77026 20.375 4.9926 20.375H13.0343C13.7132 20.375 14.3703 20.1328 14.8864 19.6901L20.2541 15.0946C20.4407 14.9418 20.675 14.8584 20.9152 14.8584L21.7747 14.8504L22.6343 14.8584C22.8765 14.8584 23.1087 14.9418 23.2953 15.0946L28.6631 19.6901C29.1792 20.1328 29.8363 20.375 30.5152 20.375H38.5569C38.7792 20.375 38.8804 20.0991 38.7117 19.9542L29.2725 11.8807C29.199 11.8192 29.1593 11.7298 29.1613 11.6326H29.1534Z" fill="#E42313"/>
</svg>
